<svg width="20" height="21" viewBox="0 0 20 21" fill="none" xmlns="http://www.w3.org/2000/svg">
<path d="M14.1667 12.6047C14.3877 12.6047 14.5996 12.5169 14.7559 12.3606C14.9122 12.2043 15 11.9923 15 11.7713C15 11.5503 14.9122 11.3383 14.7559 11.1821C14.5996 11.0258 14.3877 10.938 14.1667 10.938C13.9457 10.938 13.7337 11.0258 13.5774 11.1821C13.4211 11.3383 13.3333 11.5503 13.3333 11.7713C13.3333 11.9923 13.4211 12.2043 13.5774 12.3606C13.7337 12.5169 13.9457 12.6047 14.1667 12.6047ZM14.1667 15.938C14.3877 15.938 14.5996 15.8502 14.7559 15.6939C14.9122 15.5376 15 15.3257 15 15.1047C15 14.8836 14.9122 14.6717 14.7559 14.5154C14.5996 14.3591 14.3877 14.2713 14.1667 14.2713C13.9457 14.2713 13.7337 14.3591 13.5774 14.5154C13.4211 14.6717 13.3333 14.8836 13.3333 15.1047C13.3333 15.3257 13.4211 15.5376 13.5774 15.6939C13.7337 15.8502 13.9457 15.938 14.1667 15.938ZM10.8333 11.7713C10.8333 11.9923 10.7455 12.2043 10.5893 12.3606C10.433 12.5169 10.221 12.6047 10 12.6047C9.77899 12.6047 9.56702 12.5169 9.41074 12.3606C9.25446 12.2043 9.16667 11.9923 9.16667 11.7713C9.16667 11.5503 9.25446 11.3383 9.41074 11.1821C9.56702 11.0258 9.77899 10.938 10 10.938C10.221 10.938 10.433 11.0258 10.5893 11.1821C10.7455 11.3383 10.8333 11.5503 10.8333 11.7713ZM10.8333 15.1047C10.8333 15.3257 10.7455 15.5376 10.5893 15.6939C10.433 15.8502 10.221 15.938 10 15.938C9.77899 15.938 9.56702 15.8502 9.41074 15.6939C9.25446 15.5376 9.16667 15.3257 9.16667 15.1047C9.16667 14.8836 9.25446 14.6717 9.41074 14.5154C9.56702 14.3591 9.77899 14.2713 10 14.2713C10.221 14.2713 10.433 14.3591 10.5893 14.5154C10.7455 14.6717 10.8333 14.8836 10.8333 15.1047ZM5.83333 12.6047C6.05435 12.6047 6.26631 12.5169 6.42259 12.3606C6.57887 12.2043 6.66667 11.9923 6.66667 11.7713C6.66667 11.5503 6.57887 11.3383 6.42259 11.1821C6.26631 11.0258 6.05435 10.938 5.83333 10.938C5.61232 10.938 5.40036 11.0258 5.24408 11.1821C5.0878 11.3383 5 11.5503 5 11.7713C5 11.9923 5.0878 12.2043 5.24408 12.3606C5.40036 12.5169 5.61232 12.6047 5.83333 12.6047ZM5.83333 15.938C6.05435 15.938 6.26631 15.8502 6.42259 15.6939C6.57887 15.5376 6.66667 15.3257 6.66667 15.1047C6.66667 14.8836 6.57887 14.6717 6.42259 14.5154C6.26631 14.3591 6.05435 14.2713 5.83333 14.2713C5.61232 14.2713 5.40036 14.3591 5.24408 14.5154C5.0878 14.6717 5 14.8836 5 15.1047C5 15.3257 5.0878 15.5376 5.24408 15.6939C5.40036 15.8502 5.61232 15.938 5.83333 15.938Z" fill="#585858"/>
<path fill-rule="evenodd" clip-rule="evenodd" d="M5.8338 2.39648C5.99956 2.39648 6.15853 2.46233 6.27574 2.57954C6.39295 2.69675 6.4588 2.85572 6.4588 3.02148V3.65732C7.01047 3.64648 7.61797 3.64648 8.2863 3.64648H11.7138C12.383 3.64648 12.9905 3.64648 13.5421 3.65732V3.02148C13.5421 2.85572 13.608 2.69675 13.7252 2.57954C13.8424 2.46233 14.0014 2.39648 14.1671 2.39648C14.3329 2.39648 14.4919 2.46233 14.6091 2.57954C14.7263 2.69675 14.7921 2.85572 14.7921 3.02148V3.71065C15.0088 3.72732 15.2141 3.74843 15.408 3.77398C16.3846 3.90565 17.1755 4.18232 17.7996 4.80565C18.423 5.42982 18.6996 6.22065 18.8313 7.19732C18.9588 8.14732 18.9588 9.35982 18.9588 10.8915V12.6515C18.9588 14.1832 18.9588 15.3965 18.8313 16.3457C18.6996 17.3223 18.423 18.1131 17.7996 18.7373C17.1755 19.3606 16.3846 19.6373 15.408 19.769C14.458 19.8965 13.2455 19.8965 11.7138 19.8965H8.28797C6.7563 19.8965 5.54297 19.8965 4.5938 19.769C3.61714 19.6373 2.8263 19.3606 2.20214 18.7373C1.5788 18.1131 1.30214 17.3223 1.17047 16.3457C1.04297 15.3957 1.04297 14.1832 1.04297 12.6515V10.8915C1.04297 9.35982 1.04297 8.14648 1.17047 7.19732C1.30214 6.22065 1.5788 5.42982 2.20214 4.80565C2.8263 4.18232 3.61714 3.90565 4.5938 3.77398C4.78825 3.74843 4.99352 3.72732 5.20964 3.71065V3.02148C5.20964 2.85587 5.27537 2.69702 5.3924 2.57984C5.50943 2.46265 5.66819 2.39671 5.8338 2.39648ZM4.7588 5.01315C3.9213 5.12565 3.43797 5.33732 3.08547 5.68982C2.73297 6.04232 2.5213 6.52565 2.4088 7.36315C2.38991 7.50482 2.3738 7.65454 2.36047 7.81232H17.6405C17.6271 7.65454 17.611 7.50454 17.5921 7.36232C17.4796 6.52482 17.268 6.04148 16.9155 5.68898C16.563 5.33648 16.0796 5.12482 15.2413 5.01232C14.3855 4.89732 13.2563 4.89565 11.6671 4.89565H8.3338C6.74464 4.89565 5.6163 4.89815 4.7588 5.01315ZM2.29214 10.9382C2.29214 10.2265 2.29214 9.60732 2.30297 9.06315H17.698C17.7088 9.60732 17.7088 10.2265 17.7088 10.9382V12.6048C17.7088 14.194 17.7071 15.3232 17.5921 16.1798C17.4796 17.0173 17.268 17.5007 16.9155 17.8532C16.563 18.2057 16.0796 18.4173 15.2413 18.5298C14.3855 18.6448 13.2563 18.6465 11.6671 18.6465H8.3338C6.74464 18.6465 5.6163 18.6448 4.7588 18.5298C3.9213 18.4173 3.43797 18.2057 3.08547 17.8532C2.73297 17.5007 2.5213 17.0173 2.4088 16.179C2.2938 15.3232 2.29214 14.194 2.29214 12.6048V10.9382Z" fill="#585858"/>
</svg>
