<svg width="20" height="16" viewBox="0 0 20 16" fill="none" xmlns="http://www.w3.org/2000/svg">
<path d="M9.40039 0.166992H4.00039C3.04561 0.166992 2.12994 0.546277 1.45481 1.22141C0.779675 1.89654 0.400391 2.81221 0.400391 3.76699V12.167C0.400391 13.1218 0.779675 14.0374 1.45481 14.7126C2.12994 15.3877 3.04561 15.767 4.00039 15.767H9.40039V0.166992ZM4.77559 5.14219C4.83133 5.08632 4.89754 5.04199 4.97043 5.01174C5.04332 4.98149 5.12147 4.96592 5.20039 4.96592C5.27931 4.96592 5.35746 4.98149 5.43035 5.01174C5.50325 5.04199 5.56946 5.08632 5.62519 5.14219L7.42519 6.94219C7.48098 6.99798 7.52523 7.0642 7.55542 7.13709C7.58561 7.20998 7.60115 7.2881 7.60115 7.36699C7.60115 7.44589 7.58561 7.52401 7.55542 7.59689C7.52523 7.66978 7.48098 7.73601 7.42519 7.79179C7.36941 7.84758 7.30318 7.89183 7.23029 7.92202C7.1574 7.95221 7.07928 7.96775 7.00039 7.96775C6.9215 7.96775 6.84338 7.95221 6.77049 7.92202C6.6976 7.89183 6.63138 7.84758 6.57559 7.79179L5.80039 7.01539V10.367C5.80039 10.5261 5.73718 10.6787 5.62465 10.7913C5.51213 10.9038 5.35952 10.967 5.20039 10.967C5.04126 10.967 4.88865 10.9038 4.77613 10.7913C4.66361 10.6787 4.60039 10.5261 4.60039 10.367V7.01539L3.82519 7.79179C3.76941 7.84758 3.70318 7.89183 3.63029 7.92202C3.5574 7.95221 3.47928 7.96775 3.40039 7.96775C3.3215 7.96775 3.24338 7.95221 3.17049 7.92202C3.0976 7.89183 3.03138 7.84758 2.97559 7.79179C2.91981 7.73601 2.87555 7.66978 2.84536 7.59689C2.81517 7.52401 2.79963 7.44589 2.79963 7.36699C2.79963 7.2881 2.81517 7.20998 2.84536 7.13709C2.87555 7.0642 2.91981 6.99798 2.97559 6.94219L4.77559 5.14219ZM10.6004 15.767H16.0004C16.9552 15.767 17.8708 15.3877 18.546 14.7126C19.2211 14.0374 19.6004 13.1218 19.6004 12.167V3.76699C19.6004 2.81221 19.2211 1.89654 18.546 1.22141C17.8708 0.546277 16.9552 0.166992 16.0004 0.166992H10.6004V15.767ZM15.2252 10.7918C15.1695 10.8477 15.1032 10.892 15.0304 10.9222C14.9575 10.9525 14.8793 10.9681 14.8004 10.9681C14.7215 10.9681 14.6433 10.9525 14.5704 10.9222C14.4975 10.892 14.4313 10.8477 14.3756 10.7918L12.5756 8.99179C12.4629 8.87913 12.3996 8.72632 12.3996 8.56699C12.3996 8.40766 12.4629 8.25486 12.5756 8.14219C12.6883 8.02953 12.8411 7.96623 13.0004 7.96623C13.1597 7.96623 13.3125 8.02953 13.4252 8.14219L14.2004 8.91859V5.56699C14.2004 5.40786 14.2636 5.25525 14.3761 5.14273C14.4886 5.03021 14.6413 4.96699 14.8004 4.96699C14.9595 4.96699 15.1121 5.03021 15.2247 5.14273C15.3372 5.25525 15.4004 5.40786 15.4004 5.56699V8.91859L16.1756 8.14219C16.2883 8.02953 16.4411 7.96623 16.6004 7.96623C16.7597 7.96623 16.9125 8.02953 17.0252 8.14219C17.1379 8.25486 17.2011 8.40766 17.2011 8.56699C17.2011 8.72632 17.1379 8.87913 17.0252 8.99179L15.2252 10.7918Z" fill="black"/>
</svg>
