<svg width="36" height="37" viewBox="0 0 36 37" fill="none" xmlns="http://www.w3.org/2000/svg">
<path fill-rule="evenodd" clip-rule="evenodd" d="M17.9347 36.3751C13.1608 36.3577 8.58937 34.4447 5.226 31.0568C1.86262 27.6689 -0.0171594 23.0837 0.000177531 18.3098C0.0175145 13.5359 1.93055 8.96449 5.31844 5.60112C8.70633 2.23775 13.2916 0.357962 18.0654 0.375299C22.8393 0.392636 27.4107 2.30567 30.7741 5.69356C34.1375 9.08146 36.0173 13.6667 35.9999 18.4405C35.9826 23.2144 34.0696 27.7859 30.6817 31.1492C27.2938 34.5126 22.7086 36.3924 17.9347 36.3751ZM28.1099 14.8119L17.9765 24.8719L7.9164 14.7385L28.1099 14.8119Z" fill="#7E7E7E"/>
</svg>
