<svg width="42" height="43" viewBox="0 0 42 43" fill="none" xmlns="http://www.w3.org/2000/svg">
<rect y="0.5" width="42" height="42" rx="21" fill="#CD202E"/>
<path d="M11.8482 11.0279C14.3885 8.74786 17.6386 7.49503 21 7.50001C28.7322 7.50001 35 13.9917 35 22C35 25.0972 34.062 27.9682 32.466 30.323L28 22H32.2C32.2002 19.7259 31.5549 17.5018 30.3445 15.6044C29.1341 13.707 27.4119 12.22 25.3921 11.3282C23.3722 10.4364 21.1438 10.1792 18.9839 10.5885C16.8241 10.9979 14.828 12.0558 13.244 13.6306L11.8482 11.0279ZM30.1518 32.9721C27.6115 35.2521 24.3614 36.505 21 36.5C13.2678 36.5 7 30.0083 7 22C7 18.9028 7.938 16.0318 9.534 13.677L14 22H9.8C9.79982 24.2741 10.4451 26.4982 11.6555 28.3956C12.8659 30.293 14.5881 31.78 16.6079 32.6718C18.6278 33.5636 20.8562 33.8208 23.0161 33.4115C25.1759 33.0021 27.172 31.9442 28.756 30.3694L30.1518 32.9721Z" fill="white"/>
</svg>
