<svg width="36" height="37" viewBox="0 0 36 37" fill="none" xmlns="http://www.w3.org/2000/svg">
<path d="M18 0.375C14.4399 0.375 10.9598 1.43068 7.99974 3.40855C5.03966 5.38641 2.73255 8.19763 1.37018 11.4867C0.0077991 14.7758 -0.348661 18.395 0.345873 21.8866C1.04041 25.3783 2.75474 28.5856 5.27208 31.1029C7.78943 33.6203 10.9967 35.3346 14.4884 36.0291C17.98 36.7237 21.5992 36.3672 24.8883 35.0048C28.1774 33.6424 30.9886 31.3353 32.9665 28.3753C34.9443 25.4152 36 21.9351 36 18.375C36 13.6011 34.1036 9.02273 30.7279 5.64708C27.3523 2.27142 22.7739 0.375 18 0.375ZM25.7143 23.5179C25.7143 24.1998 25.4434 24.8539 24.9611 25.3361C24.4789 25.8184 23.8248 26.0893 23.1429 26.0893H12.8571C12.1752 26.0893 11.5211 25.8184 11.0389 25.3361C10.5566 24.8539 10.2857 24.1998 10.2857 23.5179V13.2321C10.2857 12.5502 10.5566 11.8961 11.0389 11.4139C11.5211 10.9316 12.1752 10.6607 12.8571 10.6607H23.1429C23.8248 10.6607 24.4789 10.9316 24.9611 11.4139C25.4434 11.8961 25.7143 12.5502 25.7143 13.2321V23.5179Z" fill="#FFB100"/>
</svg>
