<svg width="20" height="20" viewBox="0 0 20 20" fill="none" xmlns="http://www.w3.org/2000/svg">
<rect x="1" y="1" width="18" height="18" rx="3" stroke="#CD202E" stroke-width="2"/>
<path d="M10 4C6.68615 4 4 6.68615 4 10C4 13.3138 6.68615 16 10 16C13.3138 16 16 13.3138 16 10C16 6.68615 13.3138 4 10 4ZM10 6.84738C10.1224 6.84738 10.2398 6.89601 10.3264 6.98257C10.4129 7.06912 10.4615 7.18652 10.4615 7.30892V10.6935C10.4615 10.8159 10.4129 10.9333 10.3264 11.0199C10.2398 11.1065 10.1224 11.1551 10 11.1551C9.87759 11.1551 9.7602 11.1065 9.67364 11.0199C9.58709 10.9333 9.53846 10.8159 9.53846 10.6935V7.30892C9.53846 7.18652 9.58709 7.06912 9.67364 6.98257C9.7602 6.89601 9.87759 6.84738 10 6.84738ZM10.4615 12.3834V12.6911C10.4615 12.8135 10.4129 12.9309 10.3264 13.0174C10.2398 13.104 10.1224 13.1526 10 13.1526C9.87759 13.1526 9.7602 13.104 9.67364 13.0174C9.58709 12.9309 9.53846 12.8135 9.53846 12.6911V12.3834C9.53846 12.261 9.58709 12.1436 9.67364 12.057C9.7602 11.9705 9.87759 11.9218 10 11.9218C10.1224 11.9218 10.2398 11.9705 10.3264 12.057C10.4129 12.1436 10.4615 12.261 10.4615 12.3834Z" fill="#CD202E"/>
</svg>
