<svg width="10" height="11" viewBox="0 0 10 11" fill="none" xmlns="http://www.w3.org/2000/svg">
<path d="M3.69752 9.18556L3.98974 9.84278C4.07661 10.0384 4.21838 10.2046 4.39786 10.3213C4.57733 10.438 4.7868 10.5 5.00085 10.5C5.21491 10.5 5.42438 10.438 5.60385 10.3213C5.78333 10.2046 5.9251 10.0384 6.01197 9.84278L6.30419 9.18556C6.40821 8.95235 6.58319 8.75793 6.80419 8.63C7.02658 8.50172 7.28385 8.44707 7.53919 8.47389L8.25419 8.55C8.46702 8.57251 8.68182 8.5328 8.87253 8.43567C9.06324 8.33853 9.22168 8.18816 9.32863 8.00278C9.43572 7.81751 9.48674 7.60514 9.4755 7.39144C9.46426 7.17774 9.39124 6.9719 9.2653 6.79889L8.84197 6.21722C8.69123 6.00857 8.61068 5.75741 8.61197 5.5C8.61192 5.24329 8.69322 4.99318 8.84419 4.78556L9.26752 4.20389C9.39346 4.03088 9.46648 3.82503 9.47772 3.61134C9.48896 3.39764 9.43794 3.18527 9.33085 3C9.2239 2.81462 9.06547 2.66424 8.87475 2.56711C8.68404 2.46998 8.46925 2.43027 8.25641 2.45278L7.54141 2.52889C7.28608 2.5557 7.0288 2.50106 6.80641 2.37278C6.58497 2.24413 6.40995 2.04868 6.30641 1.81444L6.01197 1.15722C5.9251 0.961586 5.78333 0.795358 5.60385 0.678699C5.42438 0.562041 5.21491 0.499965 5.00085 0.5C4.7868 0.499965 4.57733 0.562041 4.39786 0.678699C4.21838 0.795358 4.07661 0.961586 3.98974 1.15722L3.69752 1.81444C3.59399 2.04868 3.41896 2.24413 3.19752 2.37278C2.97513 2.50106 2.71786 2.5557 2.46252 2.52889L1.7453 2.45278C1.53246 2.43027 1.31767 2.46998 1.12696 2.56711C0.936244 2.66424 0.777807 2.81462 0.670854 3C0.563765 3.18527 0.512746 3.39764 0.523988 3.61134C0.53523 3.82503 0.60825 4.03088 0.734188 4.20389L1.15752 4.78556C1.30849 4.99318 1.38979 5.24329 1.38974 5.5C1.38979 5.75671 1.30849 6.00683 1.15752 6.21444L0.734188 6.79611C0.60825 6.96912 0.53523 7.17497 0.523988 7.38866C0.512746 7.60236 0.563765 7.81473 0.670854 8C0.777912 8.18529 0.936369 8.33558 1.12705 8.4327C1.31774 8.52981 1.53248 8.56959 1.7453 8.54722L2.4603 8.47111C2.71563 8.4443 2.97291 8.49894 3.1953 8.62722C3.41756 8.75551 3.5934 8.951 3.69752 9.18556Z" stroke="#585858" stroke-linecap="round" stroke-linejoin="round"/>
<path d="M4.99996 7C5.82839 7 6.49996 6.32843 6.49996 5.5C6.49996 4.67157 5.82839 4 4.99996 4C4.17153 4 3.49996 4.67157 3.49996 5.5C3.49996 6.32843 4.17153 7 4.99996 7Z" stroke="#585858" stroke-linecap="round" stroke-linejoin="round"/>
</svg>
