<svg width="85" height="84" viewBox="0 0 85 84" fill="none" xmlns="http://www.w3.org/2000/svg">
<path d="M36.6673 49.5002L27.709 40.5418C26.9451 39.7779 25.9729 39.396 24.7923 39.396C23.6118 39.396 22.6395 39.7779 21.8757 40.5418C21.1118 41.3057 20.7298 42.2779 20.7298 43.4585C20.7298 44.6391 21.1118 45.6113 21.8757 46.3752L33.7506 58.2502C34.584 59.0835 35.5562 59.5002 36.6673 59.5002C37.7784 59.5002 38.7507 59.0835 39.584 58.2502L63.1257 34.7085C63.8895 33.9446 64.2715 32.9724 64.2715 31.7918C64.2715 30.6113 63.8895 29.6391 63.1257 28.8752C62.3618 28.1113 61.3895 27.7293 60.209 27.7293C59.0284 27.7293 58.0562 28.1113 57.2923 28.8752L36.6673 49.5002ZM42.5006 83.6668C36.7368 83.6668 31.3201 82.5724 26.2507 80.3835C21.1812 78.1946 16.7715 75.2266 13.0215 71.4793C9.27148 67.7293 6.30343 63.3196 4.11732 58.2502C1.93121 53.1807 0.836762 47.764 0.833984 42.0002C0.833984 36.2363 1.92843 30.8196 4.11732 25.7502C6.30621 20.6807 9.27426 16.271 13.0215 12.521C16.7715 8.771 21.1812 5.80294 26.2507 3.61683C31.3201 1.43072 36.7368 0.336274 42.5006 0.333496C48.2645 0.333496 53.6812 1.42794 58.7506 3.61683C63.8201 5.80572 68.2298 8.77377 71.9798 12.521C75.7298 16.271 78.6993 20.6807 80.8881 25.7502C83.077 30.8196 84.1701 36.2363 84.1673 42.0002C84.1673 47.764 83.0729 53.1807 80.884 58.2502C78.6951 63.3196 75.727 67.7293 71.9798 71.4793C68.2298 75.2293 63.8201 78.1988 58.7506 80.3877C53.6812 82.5765 48.2645 83.6696 42.5006 83.6668Z" fill="#46C46E"/>
</svg>
