<svg width="21" height="21" viewBox="0 0 21 21" fill="none" xmlns="http://www.w3.org/2000/svg">
<path d="M6.06649 10.0436L10.0443 14.0656M10.0443 14.0656L14.0664 10.0878M10.0443 14.0656L10.0885 6.06575M14.316 1.08901L5.91617 1.04264C4.23604 1.03336 3.39598 1.02872 2.75245 1.35216C2.18638 1.63666 1.72491 2.09306 1.43418 2.65595C1.10366 3.29587 1.09902 4.13593 1.08975 5.81606L1.04338 14.2159C1.0341 15.8961 1.02946 16.7361 1.35289 17.3797C1.63739 17.9457 2.0938 18.4072 2.65669 18.6979C3.29661 19.0284 4.13667 19.0331 5.8168 19.0424L14.2167 19.0887C15.8968 19.098 16.7369 19.1026 17.3804 18.7792C17.9465 18.4947 18.4079 18.0383 18.6987 17.4754C19.0292 16.8355 19.0338 15.9954 19.0431 14.3153L19.0895 5.91544C19.0987 4.2353 19.1034 3.39524 18.78 2.75171C18.4955 2.18564 18.0391 1.72417 17.4762 1.43344C16.8362 1.10292 15.9962 1.09829 14.316 1.08901Z" stroke="#1DB74E" stroke-width="2" stroke-linecap="round" stroke-linejoin="round"/>
</svg>
