<svg width="20" height="20" viewBox="0 0 20 20" fill="none" xmlns="http://www.w3.org/2000/svg">
<rect x="1" y="1" width="18" height="18" rx="3" stroke="#FFB100" stroke-width="2"/>
<path fill-rule="evenodd" clip-rule="evenodd" d="M10 4C8.4087 4 6.88258 4.63214 5.75736 5.75736C4.63214 6.88258 4 8.4087 4 10C4 11.5913 4.63214 13.1174 5.75736 14.2426C6.88258 15.3679 8.4087 16 10 16C11.5913 16 13.1174 15.3679 14.2426 14.2426C15.3679 13.1174 16 11.5913 16 10C16 8.4087 15.3679 6.88258 14.2426 5.75736C13.1174 4.63214 11.5913 4 10 4ZM8.28571 7.85714C8.17205 7.85714 8.06304 7.9023 7.98267 7.98267C7.9023 8.06304 7.85714 8.17205 7.85714 8.28571V11.7143C7.85714 11.828 7.9023 11.937 7.98267 12.0173C8.06304 12.0977 8.17205 12.1429 8.28571 12.1429H11.7143C11.828 12.1429 11.937 12.0977 12.0173 12.0173C12.0977 11.937 12.1429 11.828 12.1429 11.7143V8.28571C12.1429 8.17205 12.0977 8.06304 12.0173 7.98267C11.937 7.9023 11.828 7.85714 11.7143 7.85714H8.28571Z" fill="#FFB100"/>
</svg>
