<svg width="36" height="37" viewBox="0 0 36 37" fill="none" xmlns="http://www.w3.org/2000/svg">
<g clip-path="url(#clip0_138_1888)">
<path fill-rule="evenodd" clip-rule="evenodd" d="M18 0.375C22.7739 0.375 27.3523 2.27142 30.7279 5.64708C34.1036 9.02273 36 13.6011 36 18.375C36 23.1489 34.1036 27.7273 30.7279 31.1029C27.3523 34.4786 22.7739 36.375 18 36.375C13.2261 36.375 8.64773 34.4786 5.27208 31.1029C1.89642 27.7273 0 23.1489 0 18.375C0 13.6011 1.89642 9.02273 5.27208 5.64708C8.64773 2.27142 13.2261 0.375 18 0.375ZM7.9032 21.975L18 11.8782L28.0968 21.975H7.9032Z" fill="#7E7E7E"/>
</g>
<defs>
<clipPath id="clip0_138_1888">
<rect width="36" height="36" fill="white" transform="translate(0 0.375)"/>
</clipPath>
</defs>
</svg>
