<svg width="75" height="71" viewBox="0 0 75 71" fill="none" xmlns="http://www.w3.org/2000/svg">
<path d="M37.5005 41.2499V22.4999ZM7.36923 69.3749H67.6317C72.3692 69.3749 75.3817 64.3124 73.1286 60.1468L42.9974 4.52178C40.6317 0.156153 34.3692 0.156153 32.0036 4.52178L1.87548 60.1468C-0.383893 64.3124 2.63173 69.3749 7.36923 69.3749Z" fill="#FAFAFA"/>
<path d="M37.5005 41.2499V22.4999M7.36923 69.3749H67.6317C72.3692 69.3749 75.3817 64.3124 73.1286 60.1468L42.9974 4.52178C40.6317 0.156153 34.3692 0.156153 32.0036 4.52178L1.87548 60.1468C-0.383893 64.3124 2.63173 69.3749 7.36923 69.3749Z" stroke="#CD202E" stroke-width="2" stroke-linecap="round"/>
<path d="M40.625 52.1875C40.625 53.0163 40.2958 53.8112 39.7097 54.3972C39.1237 54.9833 38.3288 55.3125 37.5 55.3125C36.6712 55.3125 35.8763 54.9833 35.2903 54.3972C34.7042 53.8112 34.375 53.0163 34.375 52.1875C34.375 51.3587 34.7042 50.5638 35.2903 49.9778C35.8763 49.3917 36.6712 49.0625 37.5 49.0625C38.3288 49.0625 39.1237 49.3917 39.7097 49.9778C40.2958 50.5638 40.625 51.3587 40.625 52.1875Z" fill="#CD202E" stroke="#CD202E"/>
</svg>
